<svg width="1798" height="939" viewBox="0 0 1798 939" fill="none" xmlns="http://www.w3.org/2000/svg">
<path d="M1642.71 938.986V0M1585.41 938.986V0M1528.12 938.986V0M1470.82 938.986V0M1413.53 938.986V0M1356.22 938.986V0M1298.93 938.986V0M1241.63 938.986V0M1184.34 938.986V0M1127.04 938.986V0M1069.74 938.986V0M1012.44 938.986V0M955.144 938.986V0M897.84 938.986V0M840.516 939V0.0140613M783.22 939V0.0140613M725.92 939V0.0140613M668.624 939V0.0140613M611.328 939V0.0140613M554.028 939V0.0140613M496.732 939V0.0140613M439.429 939L439.43 0.0143603M382.136 939V0.0143603M324.845 939V0.0140613M267.537 939L267.538 0.0143603M210.237 939V0.0140613M152.941 939V0.0140613M95.6453 939L95.6455 0.0143603M38.3565 939L38.3566 0.0140613M0.000448845 898.309L1798 898.31M0.000448845 841.054H1798M0.000448845 783.798H1798M0.000448845 726.542L1798 726.543M0.000448845 669.287H1798M0.000448845 612.033H1798M0.000448845 554.775L1798 554.776M0.000448845 497.52H1798M0.000448845 440.266H1798M0.000448845 383.01L1798 383.011M0.000448845 325.755H1798M0.000448845 268.501H1798M0.000448845 211.245L1798 211.246M0.000448845 153.99H1798M0.000448845 96.7339L1798 96.7341M0 39.4805L1798 39.4807" stroke="#727272" stroke-dasharray="6 6"/>
</svg>
